<svg width="24" height="24" viewBox="0 0 24 24" fill="none" xmlns="http://www.w3.org/2000/svg">
<path d="M2.39999 1.99272C1.84771 1.99272 1.39999 2.44044 1.39999 2.99272C1.39999 3.54501 1.84771 3.99272 2.39999 3.99272V1.99272ZM4.69253 2.99272L5.65776 2.73131C5.5397 2.2954 5.14414 1.99272 4.69253 1.99272V2.99272ZM8.4179 16.7479L7.45268 17.0094C7.58295 17.4904 8.04747 17.802 8.54194 17.7402L8.4179 16.7479ZM19.8806 15.3151L20.0046 16.3074C20.4293 16.2543 20.7731 15.9368 20.8598 15.5177L19.8806 15.3151ZM21.6 7.00466L22.5793 7.20727C22.6402 6.91275 22.5653 6.60645 22.3754 6.37324C22.1855 6.14002 21.9007 6.00466 21.6 6.00466V7.00466ZM5.7791 7.00466L4.81387 7.26608L5.7791 7.00466ZM2.39999 3.99272H4.69253V1.99272H2.39999V3.99272ZM8.54194 17.7402L20.0046 16.3074L19.7566 14.3228L8.29387 15.7557L8.54194 17.7402ZM20.8598 15.5177L22.5793 7.20727L20.6207 6.80206L18.9013 15.1125L20.8598 15.5177ZM3.7273 3.25414L4.81387 7.26608L6.74432 6.74325L5.65776 2.73131L3.7273 3.25414ZM4.81387 7.26608L7.45268 17.0094L9.38313 16.4865L6.74432 6.74325L4.81387 7.26608ZM21.6 6.00466H5.7791V8.00466H21.6V6.00466ZM11 20.5C11 20.7761 10.7761 21 10.5 21V23C11.8807 23 13 21.8807 13 20.5H11ZM10.5 21C10.2239 21 9.99999 20.7761 9.99999 20.5H7.99999C7.99999 21.8807 9.11928 23 10.5 23V21ZM9.99999 20.5C9.99999 20.2239 10.2239 20 10.5 20V18C9.11928 18 7.99999 19.1193 7.99999 20.5H9.99999ZM10.5 20C10.7761 20 11 20.2239 11 20.5H13C13 19.1193 11.8807 18 10.5 18V20ZM19 20.5C19 20.7761 18.7761 21 18.5 21V23C19.8807 23 21 21.8807 21 20.5H19ZM18.5 21C18.2239 21 18 20.7761 18 20.5H16C16 21.8807 17.1193 23 18.5 23V21ZM18 20.5C18 20.2239 18.2239 20 18.5 20V18C17.1193 18 16 19.1193 16 20.5H18ZM18.5 20C18.7761 20 19 20.2239 19 20.5H21C21 19.1193 19.8807 18 18.5 18V20Z" fill="black"/>
</svg>
