<svg width="152" height="35" viewBox="0 0 152 35" fill="none" xmlns="http://www.w3.org/2000/svg">
<g filter="url(#filter0_d_2_4)">
<mask id="path-1-outside-1_2_4" maskUnits="userSpaceOnUse" x="4" y="0" width="144" height="27" fill="black">
<rect fill="white" x="4" width="144" height="27"/>
<path d="M19.5455 7.54545C19.4091 6.39394 18.8561 5.5 17.8864 4.86364C16.9167 4.22727 15.7273 3.90909 14.3182 3.90909C13.2879 3.90909 12.3864 4.07576 11.6136 4.40909C10.8485 4.74242 10.25 5.20076 9.81818 5.78409C9.39394 6.36742 9.18182 7.0303 9.18182 7.77273C9.18182 8.39394 9.32955 8.92803 9.625 9.375C9.92803 9.81439 10.3144 10.1818 10.7841 10.4773C11.2538 10.7652 11.7462 11.0038 12.2614 11.1932C12.7765 11.375 13.25 11.5227 13.6818 11.6364L16.0455 12.2727C16.6515 12.4318 17.3258 12.6515 18.0682 12.9318C18.8182 13.2121 19.5341 13.5947 20.2159 14.0795C20.9053 14.5568 21.4735 15.1705 21.9205 15.9205C22.3674 16.6705 22.5909 17.5909 22.5909 18.6818C22.5909 19.9394 22.2614 21.0758 21.6023 22.0909C20.9508 23.1061 19.9962 23.9129 18.7386 24.5114C17.4886 25.1098 15.9697 25.4091 14.1818 25.4091C12.5152 25.4091 11.072 25.1402 9.85227 24.6023C8.64015 24.0644 7.68561 23.3144 6.98864 22.3523C6.29924 21.3902 5.90909 20.2727 5.81818 19H8.72727C8.80303 19.8788 9.09848 20.6061 9.61364 21.1818C10.1364 21.75 10.7955 22.1742 11.5909 22.4545C12.3939 22.7273 13.2576 22.8636 14.1818 22.8636C15.2576 22.8636 16.2235 22.6894 17.0795 22.3409C17.9356 21.9848 18.6136 21.4924 19.1136 20.8636C19.6136 20.2273 19.8636 19.4848 19.8636 18.6364C19.8636 17.8636 19.6477 17.2348 19.2159 16.75C18.7841 16.2652 18.2159 15.8712 17.5114 15.5682C16.8068 15.2652 16.0455 15 15.2273 14.7727L12.3636 13.9545C10.5455 13.4318 9.10606 12.6856 8.04545 11.7159C6.98485 10.7462 6.45455 9.47727 6.45455 7.90909C6.45455 6.60606 6.80682 5.4697 7.51136 4.5C8.22348 3.52273 9.17803 2.76515 10.375 2.22727C11.5795 1.68182 12.9242 1.40909 14.4091 1.40909C15.9091 1.40909 17.2424 1.67803 18.4091 2.21591C19.5758 2.74621 20.5 3.47348 21.1818 4.39773C21.8712 5.32197 22.2348 6.37121 22.2727 7.54545H19.5455ZM27.2244 25V1.72727H30.0426V12.0909H42.4517V1.72727H45.2699V25H42.4517V14.5909H30.0426V25H27.2244ZM70.5483 13.3636C70.5483 15.8182 70.1051 17.9394 69.2188 19.7273C68.3324 21.5152 67.1165 22.8939 65.571 23.8636C64.0256 24.8333 62.2604 25.3182 60.2756 25.3182C58.2907 25.3182 56.5256 24.8333 54.9801 23.8636C53.4347 22.8939 52.2188 21.5152 51.3324 19.7273C50.446 17.9394 50.0028 15.8182 50.0028 13.3636C50.0028 10.9091 50.446 8.78788 51.3324 7C52.2188 5.21212 53.4347 3.83333 54.9801 2.86364C56.5256 1.89394 58.2907 1.40909 60.2756 1.40909C62.2604 1.40909 64.0256 1.89394 65.571 2.86364C67.1165 3.83333 68.3324 5.21212 69.2188 7C70.1051 8.78788 70.5483 10.9091 70.5483 13.3636ZM67.821 13.3636C67.821 11.3485 67.4839 9.64773 66.8097 8.26136C66.143 6.875 65.2377 5.82576 64.0938 5.11364C62.9574 4.40151 61.6847 4.04545 60.2756 4.04545C58.8665 4.04545 57.59 4.40151 56.446 5.11364C55.3097 5.82576 54.4044 6.875 53.7301 8.26136C53.0634 9.64773 52.7301 11.3485 52.7301 13.3636C52.7301 15.3788 53.0634 17.0795 53.7301 18.4659C54.4044 19.8523 55.3097 20.9015 56.446 21.6136C57.59 22.3258 58.8665 22.6818 60.2756 22.6818C61.6847 22.6818 62.9574 22.3258 64.0938 21.6136C65.2377 20.9015 66.143 19.8523 66.8097 18.4659C67.4839 17.0795 67.821 15.3788 67.821 13.3636ZM75.2869 25V1.72727H83.1506C84.9763 1.72727 86.4688 2.05682 87.6278 2.71591C88.7945 3.36742 89.6581 4.25 90.2188 5.36364C90.7794 6.47727 91.0597 7.7197 91.0597 9.09091C91.0597 10.4621 90.7794 11.7083 90.2188 12.8295C89.6657 13.9508 88.8097 14.8447 87.6506 15.5114C86.4915 16.1705 85.0066 16.5 83.196 16.5H77.5597V14H83.1051C84.3551 14 85.3589 13.7841 86.1165 13.3523C86.8741 12.9205 87.4233 12.3371 87.7642 11.6023C88.1127 10.8598 88.2869 10.0227 88.2869 9.09091C88.2869 8.15909 88.1127 7.32576 87.7642 6.59091C87.4233 5.85606 86.8703 5.2803 86.1051 4.86364C85.34 4.43939 84.3248 4.22727 83.0597 4.22727H78.1051V25H75.2869ZM96.0966 25.1818C95.536 25.1818 95.0549 24.9811 94.6534 24.5795C94.2519 24.178 94.0511 23.697 94.0511 23.1364C94.0511 22.5758 94.2519 22.0947 94.6534 21.6932C95.0549 21.2917 95.536 21.0909 96.0966 21.0909C96.6572 21.0909 97.1383 21.2917 97.5398 21.6932C97.9413 22.0947 98.142 22.5758 98.142 23.1364C98.142 23.5076 98.0473 23.8485 97.858 24.1591C97.6761 24.4697 97.4299 24.7197 97.1193 24.9091C96.8163 25.0909 96.4754 25.1818 96.0966 25.1818ZM122.045 9H119.227C119.061 8.18939 118.769 7.47727 118.352 6.86364C117.943 6.25 117.443 5.73485 116.852 5.31818C116.269 4.89394 115.621 4.57576 114.909 4.36364C114.197 4.15151 113.455 4.04545 112.682 4.04545C111.273 4.04545 109.996 4.40151 108.852 5.11364C107.716 5.82576 106.811 6.875 106.136 8.26136C105.47 9.64773 105.136 11.3485 105.136 13.3636C105.136 15.3788 105.47 17.0795 106.136 18.4659C106.811 19.8523 107.716 20.9015 108.852 21.6136C109.996 22.3258 111.273 22.6818 112.682 22.6818C113.455 22.6818 114.197 22.5758 114.909 22.3636C115.621 22.1515 116.269 21.8371 116.852 21.4205C117.443 20.9962 117.943 20.4773 118.352 19.8636C118.769 19.2424 119.061 18.5303 119.227 17.7273H122.045C121.833 18.9167 121.447 19.9811 120.886 20.9205C120.326 21.8598 119.629 22.6591 118.795 23.3182C117.962 23.9697 117.027 24.4659 115.989 24.8068C114.958 25.1477 113.856 25.3182 112.682 25.3182C110.697 25.3182 108.932 24.8333 107.386 23.8636C105.841 22.8939 104.625 21.5152 103.739 19.7273C102.852 17.9394 102.409 15.8182 102.409 13.3636C102.409 10.9091 102.852 8.78788 103.739 7C104.625 5.21212 105.841 3.83333 107.386 2.86364C108.932 1.89394 110.697 1.40909 112.682 1.40909C113.856 1.40909 114.958 1.57954 115.989 1.92045C117.027 2.26136 117.962 2.76136 118.795 3.42045C119.629 4.07197 120.326 4.86742 120.886 5.80682C121.447 6.73864 121.833 7.80303 122.045 9ZM146.236 13.3636C146.236 15.8182 145.793 17.9394 144.906 19.7273C144.02 21.5152 142.804 22.8939 141.259 23.8636C139.713 24.8333 137.948 25.3182 135.963 25.3182C133.978 25.3182 132.213 24.8333 130.668 23.8636C129.122 22.8939 127.906 21.5152 127.02 19.7273C126.134 17.9394 125.69 15.8182 125.69 13.3636C125.69 10.9091 126.134 8.78788 127.02 7C127.906 5.21212 129.122 3.83333 130.668 2.86364C132.213 1.89394 133.978 1.40909 135.963 1.40909C137.948 1.40909 139.713 1.89394 141.259 2.86364C142.804 3.83333 144.02 5.21212 144.906 7C145.793 8.78788 146.236 10.9091 146.236 13.3636ZM143.509 13.3636C143.509 11.3485 143.171 9.64773 142.497 8.26136C141.83 6.875 140.925 5.82576 139.781 5.11364C138.645 4.40151 137.372 4.04545 135.963 4.04545C134.554 4.04545 133.277 4.40151 132.134 5.11364C130.997 5.82576 130.092 6.875 129.418 8.26136C128.751 9.64773 128.418 11.3485 128.418 13.3636C128.418 15.3788 128.751 17.0795 129.418 18.4659C130.092 19.8523 130.997 20.9015 132.134 21.6136C133.277 22.3258 134.554 22.6818 135.963 22.6818C137.372 22.6818 138.645 22.3258 139.781 21.6136C140.925 20.9015 141.83 19.8523 142.497 18.4659C143.171 17.0795 143.509 15.3788 143.509 13.3636Z"/>
</mask>
<path d="M19.5455 7.54545C19.4091 6.39394 18.8561 5.5 17.8864 4.86364C16.9167 4.22727 15.7273 3.90909 14.3182 3.90909C13.2879 3.90909 12.3864 4.07576 11.6136 4.40909C10.8485 4.74242 10.25 5.20076 9.81818 5.78409C9.39394 6.36742 9.18182 7.0303 9.18182 7.77273C9.18182 8.39394 9.32955 8.92803 9.625 9.375C9.92803 9.81439 10.3144 10.1818 10.7841 10.4773C11.2538 10.7652 11.7462 11.0038 12.2614 11.1932C12.7765 11.375 13.25 11.5227 13.6818 11.6364L16.0455 12.2727C16.6515 12.4318 17.3258 12.6515 18.0682 12.9318C18.8182 13.2121 19.5341 13.5947 20.2159 14.0795C20.9053 14.5568 21.4735 15.1705 21.9205 15.9205C22.3674 16.6705 22.5909 17.5909 22.5909 18.6818C22.5909 19.9394 22.2614 21.0758 21.6023 22.0909C20.9508 23.1061 19.9962 23.9129 18.7386 24.5114C17.4886 25.1098 15.9697 25.4091 14.1818 25.4091C12.5152 25.4091 11.072 25.1402 9.85227 24.6023C8.64015 24.0644 7.68561 23.3144 6.98864 22.3523C6.29924 21.3902 5.90909 20.2727 5.81818 19H8.72727C8.80303 19.8788 9.09848 20.6061 9.61364 21.1818C10.1364 21.75 10.7955 22.1742 11.5909 22.4545C12.3939 22.7273 13.2576 22.8636 14.1818 22.8636C15.2576 22.8636 16.2235 22.6894 17.0795 22.3409C17.9356 21.9848 18.6136 21.4924 19.1136 20.8636C19.6136 20.2273 19.8636 19.4848 19.8636 18.6364C19.8636 17.8636 19.6477 17.2348 19.2159 16.75C18.7841 16.2652 18.2159 15.8712 17.5114 15.5682C16.8068 15.2652 16.0455 15 15.2273 14.7727L12.3636 13.9545C10.5455 13.4318 9.10606 12.6856 8.04545 11.7159C6.98485 10.7462 6.45455 9.47727 6.45455 7.90909C6.45455 6.60606 6.80682 5.4697 7.51136 4.5C8.22348 3.52273 9.17803 2.76515 10.375 2.22727C11.5795 1.68182 12.9242 1.40909 14.4091 1.40909C15.9091 1.40909 17.2424 1.67803 18.4091 2.21591C19.5758 2.74621 20.5 3.47348 21.1818 4.39773C21.8712 5.32197 22.2348 6.37121 22.2727 7.54545H19.5455ZM27.2244 25V1.72727H30.0426V12.0909H42.4517V1.72727H45.2699V25H42.4517V14.5909H30.0426V25H27.2244ZM70.5483 13.3636C70.5483 15.8182 70.1051 17.9394 69.2188 19.7273C68.3324 21.5152 67.1165 22.8939 65.571 23.8636C64.0256 24.8333 62.2604 25.3182 60.2756 25.3182C58.2907 25.3182 56.5256 24.8333 54.9801 23.8636C53.4347 22.8939 52.2188 21.5152 51.3324 19.7273C50.446 17.9394 50.0028 15.8182 50.0028 13.3636C50.0028 10.9091 50.446 8.78788 51.3324 7C52.2188 5.21212 53.4347 3.83333 54.9801 2.86364C56.5256 1.89394 58.2907 1.40909 60.2756 1.40909C62.2604 1.40909 64.0256 1.89394 65.571 2.86364C67.1165 3.83333 68.3324 5.21212 69.2188 7C70.1051 8.78788 70.5483 10.9091 70.5483 13.3636ZM67.821 13.3636C67.821 11.3485 67.4839 9.64773 66.8097 8.26136C66.143 6.875 65.2377 5.82576 64.0938 5.11364C62.9574 4.40151 61.6847 4.04545 60.2756 4.04545C58.8665 4.04545 57.59 4.40151 56.446 5.11364C55.3097 5.82576 54.4044 6.875 53.7301 8.26136C53.0634 9.64773 52.7301 11.3485 52.7301 13.3636C52.7301 15.3788 53.0634 17.0795 53.7301 18.4659C54.4044 19.8523 55.3097 20.9015 56.446 21.6136C57.59 22.3258 58.8665 22.6818 60.2756 22.6818C61.6847 22.6818 62.9574 22.3258 64.0938 21.6136C65.2377 20.9015 66.143 19.8523 66.8097 18.4659C67.4839 17.0795 67.821 15.3788 67.821 13.3636ZM75.2869 25V1.72727H83.1506C84.9763 1.72727 86.4688 2.05682 87.6278 2.71591C88.7945 3.36742 89.6581 4.25 90.2188 5.36364C90.7794 6.47727 91.0597 7.7197 91.0597 9.09091C91.0597 10.4621 90.7794 11.7083 90.2188 12.8295C89.6657 13.9508 88.8097 14.8447 87.6506 15.5114C86.4915 16.1705 85.0066 16.5 83.196 16.5H77.5597V14H83.1051C84.3551 14 85.3589 13.7841 86.1165 13.3523C86.8741 12.9205 87.4233 12.3371 87.7642 11.6023C88.1127 10.8598 88.2869 10.0227 88.2869 9.09091C88.2869 8.15909 88.1127 7.32576 87.7642 6.59091C87.4233 5.85606 86.8703 5.2803 86.1051 4.86364C85.34 4.43939 84.3248 4.22727 83.0597 4.22727H78.1051V25H75.2869ZM96.0966 25.1818C95.536 25.1818 95.0549 24.9811 94.6534 24.5795C94.2519 24.178 94.0511 23.697 94.0511 23.1364C94.0511 22.5758 94.2519 22.0947 94.6534 21.6932C95.0549 21.2917 95.536 21.0909 96.0966 21.0909C96.6572 21.0909 97.1383 21.2917 97.5398 21.6932C97.9413 22.0947 98.142 22.5758 98.142 23.1364C98.142 23.5076 98.0473 23.8485 97.858 24.1591C97.6761 24.4697 97.4299 24.7197 97.1193 24.9091C96.8163 25.0909 96.4754 25.1818 96.0966 25.1818ZM122.045 9H119.227C119.061 8.18939 118.769 7.47727 118.352 6.86364C117.943 6.25 117.443 5.73485 116.852 5.31818C116.269 4.89394 115.621 4.57576 114.909 4.36364C114.197 4.15151 113.455 4.04545 112.682 4.04545C111.273 4.04545 109.996 4.40151 108.852 5.11364C107.716 5.82576 106.811 6.875 106.136 8.26136C105.47 9.64773 105.136 11.3485 105.136 13.3636C105.136 15.3788 105.47 17.0795 106.136 18.4659C106.811 19.8523 107.716 20.9015 108.852 21.6136C109.996 22.3258 111.273 22.6818 112.682 22.6818C113.455 22.6818 114.197 22.5758 114.909 22.3636C115.621 22.1515 116.269 21.8371 116.852 21.4205C117.443 20.9962 117.943 20.4773 118.352 19.8636C118.769 19.2424 119.061 18.5303 119.227 17.7273H122.045C121.833 18.9167 121.447 19.9811 120.886 20.9205C120.326 21.8598 119.629 22.6591 118.795 23.3182C117.962 23.9697 117.027 24.4659 115.989 24.8068C114.958 25.1477 113.856 25.3182 112.682 25.3182C110.697 25.3182 108.932 24.8333 107.386 23.8636C105.841 22.8939 104.625 21.5152 103.739 19.7273C102.852 17.9394 102.409 15.8182 102.409 13.3636C102.409 10.9091 102.852 8.78788 103.739 7C104.625 5.21212 105.841 3.83333 107.386 2.86364C108.932 1.89394 110.697 1.40909 112.682 1.40909C113.856 1.40909 114.958 1.57954 115.989 1.92045C117.027 2.26136 117.962 2.76136 118.795 3.42045C119.629 4.07197 120.326 4.86742 120.886 5.80682C121.447 6.73864 121.833 7.80303 122.045 9ZM146.236 13.3636C146.236 15.8182 145.793 17.9394 144.906 19.7273C144.02 21.5152 142.804 22.8939 141.259 23.8636C139.713 24.8333 137.948 25.3182 135.963 25.3182C133.978 25.3182 132.213 24.8333 130.668 23.8636C129.122 22.8939 127.906 21.5152 127.02 19.7273C126.134 17.9394 125.69 15.8182 125.69 13.3636C125.69 10.9091 126.134 8.78788 127.02 7C127.906 5.21212 129.122 3.83333 130.668 2.86364C132.213 1.89394 133.978 1.40909 135.963 1.40909C137.948 1.40909 139.713 1.89394 141.259 2.86364C142.804 3.83333 144.02 5.21212 144.906 7C145.793 8.78788 146.236 10.9091 146.236 13.3636ZM143.509 13.3636C143.509 11.3485 143.171 9.64773 142.497 8.26136C141.83 6.875 140.925 5.82576 139.781 5.11364C138.645 4.40151 137.372 4.04545 135.963 4.04545C134.554 4.04545 133.277 4.40151 132.134 5.11364C130.997 5.82576 130.092 6.875 129.418 8.26136C128.751 9.64773 128.418 11.3485 128.418 13.3636C128.418 15.3788 128.751 17.0795 129.418 18.4659C130.092 19.8523 130.997 20.9015 132.134 21.6136C133.277 22.3258 134.554 22.6818 135.963 22.6818C137.372 22.6818 138.645 22.3258 139.781 21.6136C140.925 20.9015 141.83 19.8523 142.497 18.4659C143.171 17.0795 143.509 15.3788 143.509 13.3636Z" fill="black"/>
<path d="M19.5455 7.54545L18.5524 7.66305L18.6569 8.54545H19.5455V7.54545ZM17.8864 4.86364L17.3377 5.69968L17.3377 5.69968L17.8864 4.86364ZM11.6136 4.40909L11.2175 3.49087L11.2142 3.49231L11.6136 4.40909ZM9.81818 5.78409L9.01441 5.18909L9.00945 5.19592L9.81818 5.78409ZM9.625 9.375L8.79078 9.92643L8.7962 9.93464L8.80179 9.94273L9.625 9.375ZM10.7841 10.4773L10.2516 11.3238L10.2615 11.3299L10.7841 10.4773ZM12.2614 11.1932L11.9163 12.1318L11.9285 12.1362L12.2614 11.1932ZM13.6818 11.6364L13.9418 10.6707L13.9363 10.6693L13.6818 11.6364ZM16.0455 12.2727L15.7855 13.2384L15.7916 13.24L16.0455 12.2727ZM18.0682 12.9318L17.715 13.8674L17.7181 13.8685L18.0682 12.9318ZM20.2159 14.0795L19.6363 14.8946L19.6467 14.9017L20.2159 14.0795ZM21.9205 15.9205L22.7795 15.4085L22.7795 15.4085L21.9205 15.9205ZM21.6023 22.0909L20.7635 21.5464L20.7607 21.5508L21.6023 22.0909ZM18.7386 24.5114L18.3089 23.6084L18.3068 23.6094L18.7386 24.5114ZM9.85227 24.6023L9.44666 25.5163L9.44877 25.5173L9.85227 24.6023ZM6.98864 22.3523L6.17576 22.9347L6.1788 22.9389L6.98864 22.3523ZM5.81818 19V18H4.74421L4.82072 19.0712L5.81818 19ZM8.72727 19L9.72358 18.9141L9.64478 18H8.72727V19ZM9.61364 21.1818L8.86832 21.8487L8.87771 21.8589L9.61364 21.1818ZM11.5909 22.4545L11.2585 23.3978L11.2693 23.4014L11.5909 22.4545ZM17.0795 22.3409L17.4566 23.2671L17.4636 23.2642L17.0795 22.3409ZM19.1136 20.8636L19.8964 21.486L19.9 21.4815L19.1136 20.8636ZM19.2159 16.75L19.9627 16.0849L19.9627 16.0849L19.2159 16.75ZM17.5114 15.5682L17.1163 16.4868L17.1163 16.4868L17.5114 15.5682ZM15.2273 14.7727L14.9525 15.7343L14.9596 15.7362L15.2273 14.7727ZM12.3636 13.9545L12.0873 14.9156L12.0889 14.9161L12.3636 13.9545ZM8.04545 11.7159L7.37069 12.4539L7.37069 12.4539L8.04545 11.7159ZM7.51136 4.5L6.70317 3.91108L6.70235 3.9122L7.51136 4.5ZM10.375 2.22727L10.7849 3.13941L10.7875 3.13823L10.375 2.22727ZM18.4091 2.21591L17.9904 3.12405L17.9953 3.12627L18.4091 2.21591ZM21.1818 4.39773L20.3771 4.99138L20.3802 4.99562L21.1818 4.39773ZM22.2727 7.54545V8.54545H23.3055L23.2722 7.51321L22.2727 7.54545ZM20.5385 7.42785C20.3674 5.98288 19.6516 4.82599 18.435 4.02759L17.3377 5.69968C18.0605 6.17401 18.4508 6.805 18.5524 7.66305L20.5385 7.42785ZM18.435 4.02759C17.2703 3.26321 15.8799 2.90909 14.3182 2.90909V4.90909C15.5746 4.90909 16.5631 5.19134 17.3377 5.69968L18.435 4.02759ZM14.3182 2.90909C13.1814 2.90909 12.1401 3.09293 11.2175 3.49088L12.0097 5.3273C12.6327 5.05858 13.3943 4.90909 14.3182 4.90909V2.90909ZM11.2142 3.49231C10.3129 3.88499 9.5653 4.44497 9.01444 5.18911L10.6219 6.37907C10.9347 5.95655 11.3841 5.59986 12.013 5.32587L11.2142 3.49231ZM9.00945 5.19592C8.45705 5.95546 8.18182 6.82559 8.18182 7.77273H10.1818C10.1818 7.23501 10.3308 6.77939 10.6269 6.37226L9.00945 5.19592ZM8.18182 7.77273C8.18182 8.55799 8.37079 9.29106 8.79078 9.92643L10.4592 8.82357C10.2883 8.565 10.1818 8.22988 10.1818 7.77273H8.18182ZM8.80179 9.94273C9.18489 10.4982 9.67177 10.959 10.2516 11.3237L11.3165 9.63081C10.957 9.40466 10.6712 9.13056 10.4482 8.80727L8.80179 9.94273ZM10.2615 11.3299C10.7872 11.6521 11.3391 11.9195 11.9163 12.1318L12.6064 10.2546C12.1534 10.088 11.7204 9.87824 11.3067 9.62467L10.2615 11.3299ZM11.9285 12.1362C12.464 12.3252 12.964 12.4815 13.4273 12.6034L13.9363 10.6693C13.536 10.5639 13.089 10.4248 12.5942 10.2502L11.9285 12.1362ZM13.4218 12.602L15.7855 13.2383L16.3054 11.3071L13.9418 10.6707L13.4218 12.602ZM15.7916 13.24C16.3565 13.3883 16.997 13.5963 17.715 13.8674L18.4214 11.9963C17.6546 11.7068 16.9465 11.4754 16.2994 11.3055L15.7916 13.24ZM17.7181 13.8685C18.3831 14.1171 19.0222 14.4578 19.6364 14.8945L20.7954 13.2646C20.0459 12.7316 19.2533 12.3072 18.4183 11.9951L17.7181 13.8685ZM19.6467 14.9017C20.2135 15.2942 20.6847 15.8002 21.0614 16.4324L22.7795 15.4085C22.2623 14.5407 21.5971 13.8195 20.7851 13.2574L19.6467 14.9017ZM21.0614 16.4324C21.3957 16.9933 21.5909 17.7266 21.5909 18.6818H23.5909C23.5909 17.4552 23.3391 16.3476 22.7795 15.4085L21.0614 16.4324ZM21.5909 18.6818C21.5909 19.7541 21.3131 20.6999 20.7635 21.5464L22.441 22.6355C23.2096 21.4516 23.5909 20.1247 23.5909 18.6818H21.5909ZM20.7607 21.5508C20.2247 22.3859 19.4246 23.0774 18.3089 23.6084L19.1684 25.4143C20.5678 24.7483 21.6768 23.8262 22.4439 22.631L20.7607 21.5508ZM18.3068 23.6094C17.2248 24.1275 15.862 24.4091 14.1818 24.4091V26.4091C16.0774 26.4091 17.7525 26.0922 19.1705 25.4133L18.3068 23.6094ZM14.1818 24.4091C12.6204 24.4091 11.3208 24.1569 10.2558 23.6873L9.44877 25.5173C10.8232 26.1234 12.4099 26.4091 14.1818 26.4091V24.4091ZM10.2579 23.6882C9.18784 23.2134 8.38029 22.5688 7.79847 21.7656L6.1788 22.9389C6.99092 24.06 8.09246 24.9154 9.44666 25.5163L10.2579 23.6882ZM7.8015 21.7698C7.22805 20.9695 6.89446 20.0322 6.81564 18.9288L4.82072 19.0712C4.92372 20.5132 5.37043 21.8108 6.17577 22.9347L7.8015 21.7698ZM5.81818 20H8.72727V18H5.81818V20ZM7.73097 19.0859C7.82257 20.1485 8.18888 21.0892 8.8684 21.8486L10.3589 20.515C10.0081 20.123 9.78349 19.6091 9.72358 18.9141L7.73097 19.0859ZM8.87771 21.8589C9.52118 22.5583 10.3234 23.0682 11.2586 23.3977L11.9233 21.5114C11.2675 21.2803 10.7515 20.9417 10.3496 20.5048L8.87771 21.8589ZM11.2693 23.4014C12.1848 23.7123 13.158 23.8636 14.1818 23.8636V21.8636C13.3572 21.8636 12.6031 21.7422 11.9125 21.5077L11.2693 23.4014ZM14.1818 23.8636C15.3659 23.8636 16.4628 23.6716 17.4566 23.2671L16.7025 21.4147C15.9841 21.7072 15.1492 21.8636 14.1818 21.8636V23.8636ZM17.4636 23.2642C18.4516 22.8533 19.2758 22.2664 19.8963 21.486L18.3309 20.2412C17.9515 20.7184 17.4197 21.1164 16.6955 21.4176L17.4636 23.2642ZM19.9 21.4815C20.5454 20.6599 20.8636 19.6972 20.8636 18.6364H18.8636C18.8636 19.2725 18.6818 19.7946 18.3273 20.2458L19.9 21.4815ZM20.8636 18.6364C20.8636 17.6676 20.5876 16.7866 19.9627 16.0849L18.4691 17.4151C18.7079 17.6831 18.8636 18.0597 18.8636 18.6364H20.8636ZM19.9627 16.0849C19.4175 15.4728 18.7213 15 17.9065 14.6495L17.1163 16.4868C17.7106 16.7424 18.1507 17.0575 18.4691 17.4151L19.9627 16.0849ZM17.9065 14.6495C17.1564 14.3269 16.352 14.0473 15.4949 13.8092L14.9596 15.7362C15.7389 15.9527 16.4573 16.2034 17.1163 16.4868L17.9065 14.6495ZM15.502 13.8112L12.6384 12.993L12.0889 14.9161L14.9526 15.7343L15.502 13.8112ZM12.6399 12.9935C10.925 12.5004 9.63684 11.8159 8.72022 10.9779L7.37069 12.4539C8.57529 13.5553 10.1659 14.3632 12.0873 14.9156L12.6399 12.9935ZM8.72022 10.9779C7.88704 10.2161 7.45455 9.22513 7.45455 7.90909H5.45455C5.45455 9.72941 6.08265 11.2763 7.37069 12.4539L8.72022 10.9779ZM7.45455 7.90909C7.45455 6.79784 7.7509 5.87158 8.32037 5.0878L6.70235 3.9122C5.86274 5.06781 5.45455 6.41428 5.45455 7.90909H7.45455ZM8.31956 5.08892C8.92064 4.26403 9.7326 3.61227 10.7849 3.13941L9.96512 1.31513C8.62346 1.91803 7.52633 2.78143 6.70317 3.91108L8.31956 5.08892ZM10.7875 3.13823C11.8474 2.65829 13.049 2.40909 14.4091 2.40909V0.40909C12.7995 0.40909 11.3117 0.705346 9.96249 1.31632L10.7875 3.13823ZM14.4091 2.40909C15.7886 2.40909 16.9752 2.65601 17.9904 3.12404L18.8278 1.30778C17.5096 0.700052 16.0296 0.40909 14.4091 0.40909V2.40909ZM17.9953 3.12627C19.0251 3.59438 19.8078 4.21963 20.3771 4.99137L21.9865 3.80408C21.1922 2.72733 20.1264 1.89804 18.8229 1.30554L17.9953 3.12627ZM20.3802 4.99562C20.9449 5.7527 21.2418 6.60367 21.2732 7.5777L23.2722 7.51321C23.2279 6.13875 22.7975 4.89124 21.9834 3.79983L20.3802 4.99562ZM22.2727 6.54545H19.5455V8.54545H22.2727V6.54545ZM27.2244 25H26.2244V26H27.2244V25ZM27.2244 1.72727V0.727272H26.2244V1.72727H27.2244ZM30.0426 1.72727H31.0426V0.727272H30.0426V1.72727ZM30.0426 12.0909H29.0426V13.0909H30.0426V12.0909ZM42.4517 12.0909V13.0909H43.4517V12.0909H42.4517ZM42.4517 1.72727V0.727272H41.4517V1.72727H42.4517ZM45.2699 1.72727H46.2699V0.727272H45.2699V1.72727ZM45.2699 25V26H46.2699V25H45.2699ZM42.4517 25H41.4517V26H42.4517V25ZM42.4517 14.5909H43.4517V13.5909H42.4517V14.5909ZM30.0426 14.5909V13.5909H29.0426V14.5909H30.0426ZM30.0426 25V26H31.0426V25H30.0426ZM28.2244 25V1.72727H26.2244V25H28.2244ZM27.2244 2.72727H30.0426V0.727272H27.2244V2.72727ZM29.0426 1.72727V12.0909H31.0426V1.72727H29.0426ZM30.0426 13.0909H42.4517V11.0909H30.0426V13.0909ZM43.4517 12.0909V1.72727H41.4517V12.0909H43.4517ZM42.4517 2.72727H45.2699V0.727272H42.4517V2.72727ZM44.2699 1.72727V25H46.2699V1.72727H44.2699ZM45.2699 24H42.4517V26H45.2699V24ZM43.4517 25V14.5909H41.4517V25H43.4517ZM42.4517 13.5909H30.0426V15.5909H42.4517V13.5909ZM29.0426 14.5909V25H31.0426V14.5909H29.0426ZM30.0426 24H27.2244V26H30.0426V24ZM69.2188 19.7273L68.3228 19.2831L68.3228 19.2831L69.2188 19.7273ZM65.571 23.8636L66.1025 24.7107L66.1025 24.7107L65.571 23.8636ZM54.9801 23.8636L54.4486 24.7107L54.4486 24.7107L54.9801 23.8636ZM51.3324 19.7273L52.2283 19.2831L52.2283 19.2831L51.3324 19.7273ZM51.3324 7L50.4364 6.55583L51.3324 7ZM65.571 2.86364L66.1025 2.01657L66.1025 2.01657L65.571 2.86364ZM69.2188 7L68.3228 7.44417L68.3228 7.44417L69.2188 7ZM66.8097 8.26136L65.9084 8.69474L65.9104 8.69872L66.8097 8.26136ZM64.0938 5.11364L63.5627 5.961L63.5653 5.96258L64.0938 5.11364ZM56.446 5.11364L55.9175 4.26469L55.915 4.26627L56.446 5.11364ZM53.7301 8.26136L52.8308 7.824L52.8289 7.82799L53.7301 8.26136ZM53.7301 18.4659L52.8289 18.8993L52.8308 18.9033L53.7301 18.4659ZM56.446 21.6136L55.915 22.461L55.9175 22.4626L56.446 21.6136ZM64.0938 21.6136L63.5653 20.7647L63.5627 20.7663L64.0938 21.6136ZM66.8097 18.4659L65.9104 18.0285L65.9084 18.0325L66.8097 18.4659ZM69.5483 13.3636C69.5483 15.6989 69.1268 17.6614 68.3228 19.2831L70.1147 20.1714C71.0834 18.2174 71.5483 15.9375 71.5483 13.3636H69.5483ZM68.3228 19.2831C67.5105 20.9217 66.4142 22.1541 65.0395 23.0166L66.1025 24.7107C67.8188 23.6338 69.1543 22.1086 70.1147 20.1714L68.3228 19.2831ZM65.0395 23.0166C63.6673 23.8776 62.0896 24.3182 60.2756 24.3182V26.3182C62.4313 26.3182 64.3839 25.7891 66.1025 24.7107L65.0395 23.0166ZM60.2756 24.3182C58.4616 24.3182 56.8839 23.8776 55.5116 23.0166L54.4486 24.7107C56.1673 25.7891 58.1199 26.3182 60.2756 26.3182V24.3182ZM55.5116 23.0166C54.137 22.1541 53.0407 20.9217 52.2283 19.2831L50.4364 20.1714C51.3968 22.1086 52.7323 23.6338 54.4486 24.7107L55.5116 23.0166ZM52.2283 19.2831C51.4243 17.6614 51.0028 15.6989 51.0028 13.3636H49.0028C49.0028 15.9375 49.4677 18.2174 50.4364 20.1714L52.2283 19.2831ZM51.0028 13.3636C51.0028 11.0284 51.4243 9.06588 52.2283 7.44417L50.4364 6.55583C49.4677 8.50988 49.0028 10.7898 49.0028 13.3636H51.0028ZM52.2283 7.44417C53.0407 5.80561 54.137 4.57321 55.5116 3.7107L54.4486 2.01657C52.7323 3.09346 51.3968 4.61863 50.4364 6.55583L52.2283 7.44417ZM55.5116 3.7107C56.8839 2.84968 58.4616 2.40909 60.2756 2.40909V0.40909C58.1199 0.40909 56.1673 0.938201 54.4486 2.01657L55.5116 3.7107ZM60.2756 2.40909C62.0896 2.40909 63.6673 2.84968 65.0395 3.7107L66.1025 2.01657C64.3839 0.938201 62.4313 0.40909 60.2756 0.40909V2.40909ZM65.0395 3.7107C66.4142 4.57321 67.5105 5.80561 68.3228 7.44417L70.1147 6.55583C69.1543 4.61863 67.8188 3.09346 66.1025 2.01657L65.0395 3.7107ZM68.3228 7.44417C69.1268 9.06588 69.5483 11.0284 69.5483 13.3636H71.5483C71.5483 10.7898 71.0834 8.50988 70.1147 6.55583L68.3228 7.44417ZM68.821 13.3636C68.821 11.2417 68.4666 9.38184 67.7089 7.82401L65.9104 8.69872C66.5012 9.91362 66.821 11.4553 66.821 13.3636H68.821ZM67.7109 7.82799C66.9739 6.29538 65.9493 5.09078 64.6222 4.26469L63.5653 5.96258C64.5261 6.56073 65.3121 7.45462 65.9084 8.69474L67.7109 7.82799ZM64.6248 4.26627C63.321 3.44924 61.8625 3.04545 60.2756 3.04545V5.04545C61.5068 5.04545 62.5938 5.35379 63.5627 5.961L64.6248 4.26627ZM60.2756 3.04545C58.6886 3.04545 57.2275 3.44921 55.9175 4.26469L56.9745 5.96258C57.9524 5.35382 59.0443 5.04545 60.2756 5.04545V3.04545ZM55.915 4.26627C54.5973 5.09205 53.5745 6.29491 52.8308 7.82401L54.6294 8.69872C55.2342 7.45509 56.022 6.55947 56.977 5.961L55.915 4.26627ZM52.8289 7.82799C52.0803 9.38472 51.7301 11.2431 51.7301 13.3636H53.7301C53.7301 11.4539 54.0466 9.91073 54.6313 8.69474L52.8289 7.82799ZM51.7301 13.3636C51.7301 15.4842 52.0803 17.3425 52.8289 18.8993L54.6313 18.0325C54.0466 16.8165 53.7301 15.2734 53.7301 13.3636H51.7301ZM52.8308 18.9033C53.5745 20.4324 54.5973 21.6352 55.915 22.461L56.977 20.7663C56.022 20.1678 55.2342 19.2722 54.6294 18.0286L52.8308 18.9033ZM55.9175 22.4626C57.2275 23.2781 58.6886 23.6818 60.2756 23.6818V21.6818C59.0443 21.6818 57.9524 21.3735 56.9745 20.7647L55.9175 22.4626ZM60.2756 23.6818C61.8625 23.6818 63.321 23.278 64.6248 22.461L63.5627 20.7663C62.5938 21.3735 61.5068 21.6818 60.2756 21.6818V23.6818ZM64.6222 22.4626C65.9493 21.6365 66.9739 20.4319 67.7109 18.8993L65.9084 18.0325C65.3121 19.2726 64.5261 20.1665 63.5653 20.7647L64.6222 22.4626ZM67.7089 18.9033C68.4666 17.3454 68.821 15.4856 68.821 13.3636H66.821C66.821 15.272 66.5012 16.8137 65.9104 18.0286L67.7089 18.9033ZM75.2869 25H74.2869V26H75.2869V25ZM75.2869 1.72727V0.727272H74.2869V1.72727H75.2869ZM87.6278 2.71591L87.1335 3.58522L87.1403 3.58899L87.6278 2.71591ZM90.2188 5.36364L89.3255 5.81328L89.3255 5.81328L90.2188 5.36364ZM90.2188 12.8295L89.3243 12.3823L89.3219 12.3872L90.2188 12.8295ZM87.6506 15.5114L88.1449 16.3807L88.1491 16.3782L87.6506 15.5114ZM77.5597 16.5H76.5597V17.5H77.5597V16.5ZM77.5597 14V13H76.5597V14H77.5597ZM86.1165 13.3523L85.6213 12.4835L85.6213 12.4835L86.1165 13.3523ZM87.7642 11.6023L86.859 11.1774L86.8571 11.1814L87.7642 11.6023ZM87.7642 6.59091L86.857 7.01176L86.8607 7.01939L87.7642 6.59091ZM86.1051 4.86364L85.6202 5.73823L85.6269 5.74186L86.1051 4.86364ZM78.1051 4.22727V3.22727H77.1051V4.22727H78.1051ZM78.1051 25V26H79.1051V25H78.1051ZM76.2869 25V1.72727H74.2869V25H76.2869ZM75.2869 2.72727H83.1506V0.727272H75.2869V2.72727ZM83.1506 2.72727C84.8642 2.72727 86.1706 3.03766 87.1335 3.5852L88.1221 1.84662C86.7669 1.07597 85.0884 0.727272 83.1506 0.727272V2.72727ZM87.1403 3.58899C88.1456 4.15042 88.8613 4.89116 89.3255 5.81328L91.112 4.91399C90.4549 3.60884 89.4434 2.58443 88.1154 1.84282L87.1403 3.58899ZM89.3255 5.81328C89.8091 6.77394 90.0597 7.86002 90.0597 9.09091H92.0597C92.0597 7.57937 91.7496 6.1806 91.112 4.91399L89.3255 5.81328ZM90.0597 9.09091C90.0597 10.3217 89.8092 11.4126 89.3243 12.3823L91.1132 13.2768C91.7495 12.004 92.0597 10.6025 92.0597 9.09091H90.0597ZM89.3219 12.3872C88.8628 13.318 88.1517 14.0695 87.152 14.6445L88.1491 16.3782C89.4676 15.6199 90.4686 14.5835 91.1156 13.2719L89.3219 12.3872ZM87.1563 14.6421C86.1923 15.1902 84.8928 15.5 83.196 15.5V17.5C85.1204 17.5 86.7907 17.1507 88.1449 16.3807L87.1563 14.6421ZM83.196 15.5H77.5597V17.5H83.196V15.5ZM78.5597 16.5V14H76.5597V16.5H78.5597ZM77.5597 15H83.1051V13H77.5597V15ZM83.1051 15C84.4579 15 85.6518 14.7682 86.6117 14.221L85.6213 12.4835C85.066 12.8 84.2523 13 83.1051 13V15ZM86.6117 14.221C87.5352 13.6946 88.2362 12.9611 88.6713 12.0231L86.8571 11.1814C86.6104 11.7131 86.2129 12.1463 85.6213 12.4835L86.6117 14.221ZM88.6694 12.0272C89.0883 11.1348 89.2869 10.1496 89.2869 9.09091H87.2869C87.2869 9.89589 87.1371 10.5849 86.859 11.1774L88.6694 12.0272ZM89.2869 9.09091C89.2869 8.03248 89.0884 7.04942 88.6678 6.16242L86.8607 7.01939C87.137 7.60209 87.2869 8.2857 87.2869 9.09091H89.2869ZM88.6713 6.17007C88.2332 5.2257 87.5217 4.4964 86.5834 3.98541L85.6269 5.74186C86.2188 6.0642 86.6134 6.48642 86.8571 7.01175L88.6713 6.17007ZM86.59 3.98907C85.6249 3.45396 84.4237 3.22727 83.0597 3.22727V5.22727C84.226 5.22727 85.055 5.42483 85.6202 5.7382L86.59 3.98907ZM83.0597 3.22727H78.1051V5.22727H83.0597V3.22727ZM77.1051 4.22727V25H79.1051V4.22727H77.1051ZM78.1051 24H75.2869V26H78.1051V24ZM94.6534 24.5795L95.3605 23.8724L95.3605 23.8724L94.6534 24.5795ZM97.5398 21.6932L98.2469 20.9861L98.2469 20.9861L97.5398 21.6932ZM97.858 24.1591L97.0042 23.6385L96.9995 23.6462L96.9949 23.6539L97.858 24.1591ZM97.1193 24.9091L97.6338 25.7666L97.6399 25.7629L97.1193 24.9091ZM96.0966 24.1818C95.805 24.1818 95.5772 24.0891 95.3605 23.8724L93.9463 25.2867C94.5326 25.873 95.267 26.1818 96.0966 26.1818V24.1818ZM95.3605 23.8724C95.1438 23.6557 95.0511 23.4279 95.0511 23.1364H93.0511C93.0511 23.966 93.36 24.7003 93.9463 25.2867L95.3605 23.8724ZM95.0511 23.1364C95.0511 22.8448 95.1438 22.617 95.3605 22.4003L93.9463 20.9861C93.36 21.5724 93.0511 22.3067 93.0511 23.1364H95.0511ZM95.3605 22.4003C95.5772 22.1836 95.805 22.0909 96.0966 22.0909V20.0909C95.267 20.0909 94.5326 20.3997 93.9463 20.9861L95.3605 22.4003ZM96.0966 22.0909C96.3882 22.0909 96.616 22.1836 96.8327 22.4003L98.2469 20.9861C97.6605 20.3997 96.9262 20.0909 96.0966 20.0909V22.0909ZM96.8327 22.4003C97.0494 22.617 97.142 22.8448 97.142 23.1364H99.142C99.142 22.3067 98.8332 21.5724 98.2469 20.9861L96.8327 22.4003ZM97.142 23.1364C97.142 23.3279 97.0959 23.488 97.0042 23.6385L98.7118 24.6797C98.9988 24.2089 99.142 23.6873 99.142 23.1364H97.142ZM96.9949 23.6539C96.8976 23.8202 96.7697 23.951 96.5987 24.0553L97.6399 25.7629C98.0901 25.4884 98.4547 25.1192 98.721 24.6643L96.9949 23.6539ZM96.6048 24.0516C96.4684 24.1334 96.3077 24.1818 96.0966 24.1818V26.1818C96.6431 26.1818 97.1642 26.0484 97.6338 25.7666L96.6048 24.0516ZM122.045 9V10H123.238L123.03 8.8255L122.045 9ZM119.227 9L118.248 9.20139L118.412 10H119.227V9ZM118.352 6.86364L117.52 7.41836L117.525 7.42539L118.352 6.86364ZM116.852 5.31818L116.264 6.12692L116.27 6.13122L116.276 6.13544L116.852 5.31818ZM114.909 4.36364L114.624 5.32202L114.624 5.32202L114.909 4.36364ZM108.852 5.11364L108.324 4.26469L108.321 4.26627L108.852 5.11364ZM106.136 8.26136L105.237 7.824L105.235 7.82799L106.136 8.26136ZM106.136 18.4659L105.235 18.8993L105.237 18.9033L106.136 18.4659ZM108.852 21.6136L108.321 22.461L108.324 22.4626L108.852 21.6136ZM114.909 22.3636L114.624 21.4053L114.624 21.4053L114.909 22.3636ZM116.852 21.4205L117.434 22.2342L117.435 22.2328L116.852 21.4205ZM118.352 19.8636L117.522 19.3066L117.52 19.3089L118.352 19.8636ZM119.227 17.7273V16.7273H118.414L118.248 17.5241L119.227 17.7273ZM122.045 17.7273L123.03 17.9028L123.24 16.7273H122.045V17.7273ZM120.886 20.9205L120.028 20.408L120.028 20.408L120.886 20.9205ZM118.795 23.3182L119.411 24.106L119.416 24.1025L118.795 23.3182ZM115.989 24.8068L115.677 23.8568L115.675 23.8574L115.989 24.8068ZM107.386 23.8636L106.855 24.7107L106.855 24.7107L107.386 23.8636ZM103.739 19.7273L104.635 19.2831L104.635 19.2831L103.739 19.7273ZM103.739 7L102.843 6.55583L103.739 7ZM115.989 1.92045L115.675 2.86984L115.677 2.87052L115.989 1.92045ZM118.795 3.42045L118.175 4.2048L118.18 4.20826L118.795 3.42045ZM120.886 5.80682L120.028 6.31928L120.029 6.32234L120.886 5.80682ZM122.045 8H119.227V10H122.045V8ZM120.207 8.79861C120.017 7.87396 119.678 7.03638 119.18 6.30188L117.525 7.42539C117.86 7.91816 118.105 8.50483 118.248 9.20139L120.207 8.79861ZM119.184 6.30893C118.708 5.59486 118.122 4.99004 117.429 4.50092L116.276 6.13544C116.764 6.47966 117.178 6.90514 117.52 7.41834L119.184 6.30893ZM117.44 4.50945C116.763 4.01651 116.012 3.64875 115.195 3.40525L114.624 5.32202C115.23 5.50277 115.775 5.77137 116.264 6.12692L117.44 4.50945ZM115.195 3.40525C114.386 3.16444 113.547 3.04545 112.682 3.04545V5.04545C113.362 5.04545 114.008 5.13858 114.624 5.32202L115.195 3.40525ZM112.682 3.04545C111.095 3.04545 109.634 3.44921 108.324 4.26469L109.381 5.96258C110.359 5.35382 111.451 5.04545 112.682 5.04545V3.04545ZM108.321 4.26627C107.004 5.09205 105.981 6.29491 105.237 7.82401L107.036 8.69872C107.64 7.45509 108.428 6.55947 109.383 5.961L108.321 4.26627ZM105.235 7.82799C104.487 9.38472 104.136 11.2431 104.136 13.3636H106.136C106.136 11.4539 106.453 9.91073 107.038 8.69474L105.235 7.82799ZM104.136 13.3636C104.136 15.4842 104.487 17.3425 105.235 18.8993L107.038 18.0325C106.453 16.8165 106.136 15.2734 106.136 13.3636H104.136ZM105.237 18.9033C105.981 20.4324 107.004 21.6352 108.321 22.461L109.383 20.7663C108.428 20.1678 107.64 19.2722 107.036 18.0286L105.237 18.9033ZM108.324 22.4626C109.634 23.2781 111.095 23.6818 112.682 23.6818V21.6818C111.451 21.6818 110.359 21.3735 109.381 20.7647L108.324 22.4626ZM112.682 23.6818C113.547 23.6818 114.386 23.5628 115.195 23.322L114.624 21.4053C114.008 21.5887 113.362 21.6818 112.682 21.6818V23.6818ZM115.195 23.322C116.009 23.0795 116.757 22.7174 117.434 22.2342L116.271 20.6067C115.781 20.9568 115.234 21.2235 114.624 21.4053L115.195 23.322ZM117.435 22.2328C118.126 21.7374 118.709 21.1307 119.184 20.4183L117.52 19.3089C117.177 19.8238 116.761 20.2551 116.269 20.6081L117.435 22.2328ZM119.183 20.4207C119.678 19.6823 120.016 18.8477 120.206 17.9305L118.248 17.5241C118.105 18.2129 117.86 18.8025 117.522 19.3066L119.183 20.4207ZM119.227 18.7273H122.045V16.7273H119.227V18.7273ZM121.061 17.5517C120.868 18.6345 120.52 19.5827 120.028 20.408L121.745 21.4329C122.374 20.3795 122.799 19.1988 123.03 17.9028L121.061 17.5517ZM120.028 20.408C119.527 21.2462 118.91 21.9524 118.175 22.5338L119.416 24.1025C120.347 23.3658 121.124 22.4735 121.745 21.4329L120.028 20.408ZM118.18 22.5304C117.44 23.1083 116.608 23.5507 115.677 23.8568L116.301 25.7569C117.445 25.3811 118.484 24.8311 119.411 24.106L118.18 22.5304ZM115.675 23.8574C114.754 24.1622 113.758 24.3182 112.682 24.3182V26.3182C113.954 26.3182 115.163 26.1333 116.303 25.7562L115.675 23.8574ZM112.682 24.3182C110.868 24.3182 109.29 23.8776 107.918 23.0166L106.855 24.7107C108.574 25.7891 110.526 26.3182 112.682 26.3182V24.3182ZM107.918 23.0166C106.543 22.1541 105.447 20.9217 104.635 19.2831L102.843 20.1714C103.803 22.1086 105.139 23.6338 106.855 24.7107L107.918 23.0166ZM104.635 19.2831C103.831 17.6614 103.409 15.6989 103.409 13.3636H101.409C101.409 15.9375 101.874 18.2174 102.843 20.1714L104.635 19.2831ZM103.409 13.3636C103.409 11.0284 103.831 9.06588 104.635 7.44417L102.843 6.55583C101.874 8.50988 101.409 10.7898 101.409 13.3636H103.409ZM104.635 7.44417C105.447 5.80561 106.543 4.57321 107.918 3.7107L106.855 2.01657C105.139 3.09346 103.803 4.61863 102.843 6.55583L104.635 7.44417ZM107.918 3.7107C109.29 2.84968 110.868 2.40909 112.682 2.40909V0.40909C110.526 0.40909 108.574 0.938201 106.855 2.01657L107.918 3.7107ZM112.682 2.40909C113.758 2.40909 114.754 2.56509 115.675 2.86983L116.303 0.971075C115.163 0.593995 113.954 0.40909 112.682 0.40909V2.40909ZM115.677 2.87052C116.606 3.17579 117.437 3.62069 118.175 4.20479L119.416 2.63612C118.488 1.90203 117.447 1.34694 116.301 0.970393L115.677 2.87052ZM118.18 4.20826C118.912 4.78116 119.528 5.48217 120.028 6.31927L121.745 5.29436C121.123 4.25267 120.345 3.36278 119.411 2.63265L118.18 4.20826ZM120.029 6.32234C120.52 7.13762 120.868 8.08392 121.061 9.1745L123.03 8.8255C122.799 7.52214 122.374 6.33965 121.743 5.2913L120.029 6.32234ZM144.906 19.7273L144.01 19.2831L144.01 19.2831L144.906 19.7273ZM141.259 23.8636L141.79 24.7107L141.79 24.7107L141.259 23.8636ZM130.668 23.8636L130.136 24.7107L130.136 24.7107L130.668 23.8636ZM127.02 19.7273L127.916 19.2831L127.916 19.2831L127.02 19.7273ZM127.02 7L126.124 6.55583L127.02 7ZM141.259 2.86364L141.79 2.01657L141.79 2.01657L141.259 2.86364ZM144.906 7L144.01 7.44417L144.01 7.44417L144.906 7ZM142.497 8.26136L141.596 8.69474L141.598 8.69872L142.497 8.26136ZM139.781 5.11364L139.25 5.961L139.253 5.96258L139.781 5.11364ZM132.134 5.11364L131.605 4.26469L131.603 4.26627L132.134 5.11364ZM129.418 8.26136L128.518 7.824L128.516 7.82799L129.418 8.26136ZM129.418 18.4659L128.516 18.8993L128.518 18.9033L129.418 18.4659ZM132.134 21.6136L131.603 22.461L131.605 22.4626L132.134 21.6136ZM139.781 21.6136L139.253 20.7647L139.25 20.7663L139.781 21.6136ZM142.497 18.4659L141.598 18.0285L141.596 18.0325L142.497 18.4659ZM145.236 13.3636C145.236 15.6989 144.814 17.6614 144.01 19.2831L145.802 20.1714C146.771 18.2174 147.236 15.9375 147.236 13.3636H145.236ZM144.01 19.2831C143.198 20.9217 142.102 22.1541 140.727 23.0166L141.79 24.7107C143.506 23.6338 144.842 22.1086 145.802 20.1714L144.01 19.2831ZM140.727 23.0166C139.355 23.8776 137.777 24.3182 135.963 24.3182V26.3182C138.119 26.3182 140.071 25.7891 141.79 24.7107L140.727 23.0166ZM135.963 24.3182C134.149 24.3182 132.571 23.8776 131.199 23.0166L130.136 24.7107C131.855 25.7891 133.807 26.3182 135.963 26.3182V24.3182ZM131.199 23.0166C129.824 22.1541 128.728 20.9217 127.916 19.2831L126.124 20.1714C127.084 22.1086 128.42 23.6338 130.136 24.7107L131.199 23.0166ZM127.916 19.2831C127.112 17.6614 126.69 15.6989 126.69 13.3636H124.69C124.69 15.9375 125.155 18.2174 126.124 20.1714L127.916 19.2831ZM126.69 13.3636C126.69 11.0284 127.112 9.06588 127.916 7.44417L126.124 6.55583C125.155 8.50988 124.69 10.7898 124.69 13.3636H126.69ZM127.916 7.44417C128.728 5.80561 129.824 4.57321 131.199 3.7107L130.136 2.01657C128.42 3.09346 127.084 4.61863 126.124 6.55583L127.916 7.44417ZM131.199 3.7107C132.571 2.84968 134.149 2.40909 135.963 2.40909V0.40909C133.807 0.40909 131.855 0.938201 130.136 2.01657L131.199 3.7107ZM135.963 2.40909C137.777 2.40909 139.355 2.84968 140.727 3.7107L141.79 2.01657C140.071 0.938201 138.119 0.40909 135.963 0.40909V2.40909ZM140.727 3.7107C142.102 4.57321 143.198 5.80561 144.01 7.44417L145.802 6.55583C144.842 4.61863 143.506 3.09346 141.79 2.01657L140.727 3.7107ZM144.01 7.44417C144.814 9.06588 145.236 11.0284 145.236 13.3636H147.236C147.236 10.7898 146.771 8.50988 145.802 6.55583L144.01 7.44417ZM144.509 13.3636C144.509 11.2417 144.154 9.38184 143.396 7.82401L141.598 8.69872C142.189 9.91362 142.509 11.4553 142.509 13.3636H144.509ZM143.398 7.82799C142.661 6.29538 141.637 5.09078 140.31 4.26469L139.253 5.96258C140.214 6.56073 141 7.45462 141.596 8.69474L143.398 7.82799ZM140.312 4.26627C139.008 3.44924 137.55 3.04545 135.963 3.04545V5.04545C137.194 5.04545 138.281 5.35379 139.25 5.961L140.312 4.26627ZM135.963 3.04545C134.376 3.04545 132.915 3.44921 131.605 4.26469L132.662 5.96258C133.64 5.35382 134.732 5.04545 135.963 5.04545V3.04545ZM131.603 4.26627C130.285 5.09205 129.262 6.29491 128.518 7.82401L130.317 8.69872C130.922 7.45509 131.71 6.55947 132.665 5.961L131.603 4.26627ZM128.516 7.82799C127.768 9.38472 127.418 11.2431 127.418 13.3636H129.418C129.418 11.4539 129.734 9.91073 130.319 8.69474L128.516 7.82799ZM127.418 13.3636C127.418 15.4842 127.768 17.3425 128.516 18.8993L130.319 18.0325C129.734 16.8165 129.418 15.2734 129.418 13.3636H127.418ZM128.518 18.9033C129.262 20.4324 130.285 21.6352 131.603 22.461L132.665 20.7663C131.71 20.1678 130.922 19.2722 130.317 18.0286L128.518 18.9033ZM131.605 22.4626C132.915 23.2781 134.376 23.6818 135.963 23.6818V21.6818C134.732 21.6818 133.64 21.3735 132.662 20.7647L131.605 22.4626ZM135.963 23.6818C137.55 23.6818 139.008 23.278 140.312 22.461L139.25 20.7663C138.281 21.3735 137.194 21.6818 135.963 21.6818V23.6818ZM140.31 22.4626C141.637 21.6365 142.661 20.4319 143.398 18.8993L141.596 18.0325C141 19.2726 140.214 20.1665 139.253 20.7647L140.31 22.4626ZM143.396 18.9033C144.154 17.3454 144.509 15.4856 144.509 13.3636H142.509C142.509 15.272 142.189 16.8137 141.598 18.0286L143.396 18.9033Z" fill="black" mask="url(#path-1-outside-1_2_4)"/>
</g>
<defs>
<filter id="filter0_d_2_4" x="0.744205" y="0.40909" width="150.492" height="34" filterUnits="userSpaceOnUse" color-interpolation-filters="sRGB">
<feFlood flood-opacity="0" result="BackgroundImageFix"/>
<feColorMatrix in="SourceAlpha" type="matrix" values="0 0 0 0 0 0 0 0 0 0 0 0 0 0 0 0 0 0 127 0" result="hardAlpha"/>
<feOffset dy="4"/>
<feGaussianBlur stdDeviation="2"/>
<feComposite in2="hardAlpha" operator="out"/>
<feColorMatrix type="matrix" values="0 0 0 0 0 0 0 0 0 0 0 0 0 0 0 0 0 0 0.25 0"/>
<feBlend mode="normal" in2="BackgroundImageFix" result="effect1_dropShadow_2_4"/>
<feBlend mode="normal" in="SourceGraphic" in2="effect1_dropShadow_2_4" result="shape"/>
</filter>
</defs>
</svg>
